<?xml version="1.0" standalone="no"?>
<!DOCTYPE svg PUBLIC "-//W3C//DTD SVG 20010904//EN"
 "http://www.w3.org/TR/2001/REC-SVG-20010904/DTD/svg10.dtd">
<svg version="1.0" xmlns="http://www.w3.org/2000/svg"
 width="419.000000pt" height="163.000000pt" viewBox="0 0 419.000000 163.000000"
 preserveAspectRatio="xMidYMid meet">

<g transform="translate(0.000000,163.000000) scale(0.100000,-0.100000)"
fill="#000000" stroke="none">
<path d="M620 1250 l0 -160 35 0 35 0 0 125 0 125 1440 0 1440 0 0 -120 0
-120 30 0 30 0 0 155 0 155 -1505 0 -1505 0 0 -160z"/>
<path d="M2860 883 c-38 -14 -60 -47 -60 -89 0 -51 24 -74 103 -100 29 -9 58
-21 65 -27 16 -12 16 -52 -1 -65 -25 -21 -99 -19 -121 3 -12 13 -20 14 -37 4
l-22 -11 26 -25 c18 -19 39 -27 76 -31 63 -6 107 11 126 49 36 68 5 116 -95
151 -52 18 -66 28 -68 46 -2 13 2 30 8 38 15 17 73 19 99 2 21 -13 54 -4 49
15 -10 31 -103 56 -148 40z"/>
<path d="M227 843 c-8 -21 -40 -98 -71 -170 l-55 -133 28 0 c25 0 31 7 51 55
l22 55 70 0 69 0 24 -55 c21 -46 29 -55 50 -55 14 0 25 3 24 8 0 4 -31 79 -68
167 -65 154 -68 160 -98 163 -27 3 -32 -1 -46 -35z m72 -90 l21 -53 -50 0
c-45 0 -50 2 -41 18 5 9 16 35 25 56 9 22 18 37 20 35 3 -2 14 -28 25 -56z"/>
<path d="M500 710 l0 -170 25 0 c24 0 25 2 25 75 l0 75 33 0 c28 0 38 -9 85
-75 46 -64 57 -75 83 -75 16 0 29 1 29 3 0 2 -25 37 -55 77 -54 72 -55 74 -34
86 54 28 64 101 20 145 -28 28 -33 29 -120 29 l-91 0 0 -170z m172 113 c21
-18 24 -53 6 -71 -7 -7 -38 -12 -70 -12 l-58 0 0 50 0 50 52 0 c34 0 58 -6 70
-17z"/>
<path d="M840 710 l0 -170 25 0 c24 0 25 2 25 75 l0 75 55 0 c31 0 69 7 84 15
57 29 65 115 14 155 -21 17 -41 20 -114 20 l-89 0 0 -170z m175 110 c15 -16
17 -26 9 -48 -9 -25 -14 -27 -72 -30 l-62 -3 0 51 0 50 53 0 c41 0 58 -5 72
-20z"/>
<path d="M1160 865 c0 -9 7 -18 15 -21 23 -9 22 -264 -1 -264 -9 0 -14 -7 -12
-17 5 -26 101 -26 106 0 2 10 -3 17 -12 17 -23 0 -24 255 -1 264 8 3 15 12 15
21 0 12 -12 15 -55 15 -43 0 -55 -3 -55 -15z"/>
<path d="M1340 860 c0 -17 7 -20 45 -20 l45 0 0 -150 0 -150 25 0 25 0 0 150
0 150 45 0 c38 0 45 3 45 20 0 19 -7 20 -115 20 -108 0 -115 -1 -115 -20z"/>
<path d="M1693 727 c-86 -208 -81 -189 -48 -185 23 2 31 12 49 55 l21 53 71 0
70 0 23 -55 c19 -45 27 -55 47 -55 13 0 24 3 24 8 0 4 -30 80 -67 170 -66 160
-67 162 -97 162 -30 0 -32 -3 -93 -153z m111 50 c32 -78 32 -77 -19 -77 -34 0
-46 4 -42 13 28 71 40 97 43 97 2 0 10 -15 18 -33z"/>
<path d="M2170 710 l0 -170 25 0 24 0 3 128 3 127 44 -62 c60 -84 76 -84 139
3 l47 66 3 -131 3 -131 24 0 25 0 0 170 0 170 -28 0 c-24 0 -37 -12 -86 -81
l-58 -80 -59 80 c-46 64 -64 81 -84 81 l-25 0 0 -170z"/>
<path d="M2600 865 c0 -9 7 -18 15 -21 23 -9 22 -264 -1 -264 -9 0 -14 -7 -12
-17 3 -14 14 -18 53 -18 39 0 50 4 53 18 2 10 -3 17 -12 17 -23 0 -24 255 -1
264 8 3 15 12 15 21 0 12 -12 15 -55 15 -43 0 -55 -3 -55 -15z"/>
<path d="M3110 710 l0 -170 25 0 c25 0 25 1 25 80 l0 80 95 0 95 0 0 -80 c0
-79 0 -80 25 -80 l25 0 0 170 0 170 -25 0 c-24 0 -25 -2 -25 -65 l0 -65 -95 0
-95 0 0 65 c0 63 -1 65 -25 65 l-25 0 0 -170z"/>
<path d="M3480 710 l0 -170 25 0 c24 0 25 2 25 75 l0 75 30 0 c26 0 38 -11 85
-75 48 -65 60 -75 87 -75 23 0 28 3 21 13 -101 131 -105 139 -92 148 8 5 17 9
21 9 18 0 40 64 34 96 -11 57 -45 74 -147 74 l-89 0 0 -170z m175 110 c15 -16
17 -26 9 -48 -9 -25 -14 -27 -72 -30 l-62 -3 0 51 0 50 53 0 c41 0 58 -5 72
-20z"/>
<path d="M3923 843 c-8 -21 -39 -96 -69 -167 -30 -71 -54 -130 -54 -132 0 -2
11 -4 26 -4 21 0 29 9 50 55 l24 56 71 -3 72 -3 20 -52 c17 -47 23 -53 48 -53
26 0 28 2 20 23 -5 12 -35 83 -66 157 -31 74 -59 141 -62 148 -3 6 -18 12 -35
12 -24 0 -32 -6 -45 -37z m74 -88 l21 -55 -49 0 -49 0 16 38 c9 20 18 45 21
55 9 28 17 20 40 -38z"/>
<path d="M620 245 l0 -145 1505 0 1505 0 0 145 0 145 -30 0 -30 0 0 -110 0
-110 -1440 0 -1440 0 0 110 0 110 -35 0 -35 0 0 -145z"/>
</g>
</svg>
